# xmcd
#
# Track frame offsets: 
#        150
#        16153
#        42143
#        87543
#
# Disc length: 1529 seconds
#
# Revision: 2
# Processed by: cddbd v1.5.2PL0 Copyright (c) Steve Scherf et al.
# Submitted via: ExactAudioCopyFreeDBPlugin 1.0
#
DISCID=2505f704
DTITLE=a1 - Same Old Brand New You
DYEAR=2000
DGENRE=Pop
TTITLE0=Same Old Brand New You (Radio Edit)
TTITLE1=Funkin' Up (Extended Mix)
TTITLE2=Same Old Brand New You (Almighty 12" Definitive Mix)
TTITLE3=a1 Multimedia Enhanced CD
EXTD=
EXTT0=
EXTT1=
EXTT2=
EXTT3=
PLAYORDER=
